<svg width="347" height="27" viewBox="0 0 347 27" fill="none" xmlns="http://www.w3.org/2000/svg">
<path d="M0.461914 10.1084C0.461914 9.77897 0.558594 9.52474 0.751953 9.3457C0.948893 9.16667 1.23356 9.07715 1.60596 9.07715C1.96045 9.07715 2.23258 9.16667 2.42236 9.3457C2.61214 9.52474 2.70703 9.77897 2.70703 10.1084C2.70703 10.4307 2.60856 10.6831 2.41162 10.8657C2.21826 11.0448 1.94971 11.1343 1.60596 11.1343C1.25146 11.1343 0.972168 11.0448 0.768066 10.8657C0.563965 10.6867 0.461914 10.4342 0.461914 10.1084ZM13.5416 10.1084C13.5416 9.77897 13.6383 9.52474 13.8316 9.3457C14.0286 9.16667 14.3132 9.07715 14.6856 9.07715C15.0401 9.07715 15.3123 9.16667 15.5021 9.3457C15.6918 9.52474 15.7867 9.77897 15.7867 10.1084C15.7867 10.4307 15.6882 10.6831 15.4913 10.8657C15.2979 11.0448 15.0294 11.1343 14.6856 11.1343C14.3312 11.1343 14.0519 11.0448 13.8478 10.8657C13.6437 10.6867 13.5416 10.4342 13.5416 10.1084ZM26.6213 10.1084C26.6213 9.77897 26.718 9.52474 26.9113 9.3457C27.1083 9.16667 27.3929 9.07715 27.7653 9.07715C28.1198 9.07715 28.392 9.16667 28.5817 9.3457C28.7715 9.52474 28.8664 9.77897 28.8664 10.1084C28.8664 10.4307 28.7679 10.6831 28.571 10.8657C28.3776 11.0448 28.1091 11.1343 27.7653 11.1343C27.4108 11.1343 27.1315 11.0448 26.9274 10.8657C26.7233 10.6867 26.6213 10.4342 26.6213 10.1084ZM39.701 10.1084C39.701 9.77897 39.7977 9.52474 39.991 9.3457C40.188 9.16667 40.4726 9.07715 40.845 9.07715C41.1995 9.07715 41.4716 9.16667 41.6614 9.3457C41.8512 9.52474 41.9461 9.77897 41.9461 10.1084C41.9461 10.4307 41.8476 10.6831 41.6507 10.8657C41.4573 11.0448 41.1888 11.1343 40.845 11.1343C40.4905 11.1343 40.2112 11.0448 40.0071 10.8657C39.803 10.6867 39.701 10.4342 39.701 10.1084ZM52.7807 10.1084C52.7807 9.77897 52.8773 9.52474 53.0707 9.3457C53.2676 9.16667 53.5523 9.07715 53.9247 9.07715C54.2792 9.07715 54.5513 9.16667 54.7411 9.3457C54.9309 9.52474 55.0258 9.77897 55.0258 10.1084C55.0258 10.4307 54.9273 10.6831 54.7304 10.8657C54.537 11.0448 54.2685 11.1343 53.9247 11.1343C53.5702 11.1343 53.2909 11.0448 53.0868 10.8657C52.8827 10.6867 52.7807 10.4342 52.7807 10.1084ZM65.8604 10.1084C65.8604 9.77897 65.957 9.52474 66.1504 9.3457C66.3473 9.16667 66.632 9.07715 67.0044 9.07715C67.3589 9.07715 67.631 9.16667 67.8208 9.3457C68.0106 9.52474 68.1055 9.77897 68.1055 10.1084C68.1055 10.4307 68.007 10.6831 67.8101 10.8657C67.6167 11.0448 67.3481 11.1343 67.0044 11.1343C66.6499 11.1343 66.3706 11.0448 66.1665 10.8657C65.9624 10.6867 65.8604 10.4342 65.8604 10.1084ZM78.94 10.1084C78.94 9.77897 79.0367 9.52474 79.2301 9.3457C79.427 9.16667 79.7117 9.07715 80.0841 9.07715C80.4386 9.07715 80.7107 9.16667 80.9005 9.3457C81.0903 9.52474 81.1852 9.77897 81.1852 10.1084C81.1852 10.4307 81.0867 10.6831 80.8897 10.8657C80.6964 11.0448 80.4278 11.1343 80.0841 11.1343C79.7296 11.1343 79.4503 11.0448 79.2462 10.8657C79.0421 10.6867 78.94 10.4342 78.94 10.1084ZM92.0197 10.1084C92.0197 9.77897 92.1164 9.52474 92.3098 9.3457C92.5067 9.16667 92.7914 9.07715 93.1638 9.07715C93.5183 9.07715 93.7904 9.16667 93.9802 9.3457C94.1699 9.52474 94.2648 9.77897 94.2648 10.1084C94.2648 10.4307 94.1664 10.6831 93.9694 10.8657C93.7761 11.0448 93.5075 11.1343 93.1638 11.1343C92.8093 11.1343 92.53 11.0448 92.3259 10.8657C92.1218 10.6867 92.0197 10.4342 92.0197 10.1084ZM105.099 10.1084C105.099 9.77897 105.196 9.52474 105.389 9.3457C105.586 9.16667 105.871 9.07715 106.243 9.07715C106.598 9.07715 106.87 9.16667 107.06 9.3457C107.25 9.52474 107.345 9.77897 107.345 10.1084C107.345 10.4307 107.246 10.6831 107.049 10.8657C106.856 11.0448 106.587 11.1343 106.243 11.1343C105.889 11.1343 105.61 11.0448 105.406 10.8657C105.201 10.6867 105.099 10.4342 105.099 10.1084ZM118.179 10.1084C118.179 9.77897 118.276 9.52474 118.469 9.3457C118.666 9.16667 118.951 9.07715 119.323 9.07715C119.678 9.07715 119.95 9.16667 120.14 9.3457C120.329 9.52474 120.424 9.77897 120.424 10.1084C120.424 10.4307 120.326 10.6831 120.129 10.8657C119.935 11.0448 119.667 11.1343 119.323 11.1343C118.969 11.1343 118.689 11.0448 118.485 10.8657C118.281 10.6867 118.179 10.4342 118.179 10.1084ZM131.259 10.1084C131.259 9.77897 131.355 9.52474 131.549 9.3457C131.746 9.16667 132.03 9.07715 132.403 9.07715C132.757 9.07715 133.029 9.16667 133.219 9.3457C133.409 9.52474 133.504 9.77897 133.504 10.1084C133.504 10.4307 133.405 10.6831 133.208 10.8657C133.015 11.0448 132.747 11.1343 132.403 11.1343C132.048 11.1343 131.769 11.0448 131.565 10.8657C131.361 10.6867 131.259 10.4342 131.259 10.1084ZM144.338 10.1084C144.338 9.77897 144.435 9.52474 144.629 9.3457C144.825 9.16667 145.11 9.07715 145.483 9.07715C145.837 9.07715 146.109 9.16667 146.299 9.3457C146.489 9.52474 146.584 9.77897 146.584 10.1084C146.584 10.4307 146.485 10.6831 146.288 10.8657C146.095 11.0448 145.826 11.1343 145.483 11.1343C145.128 11.1343 144.849 11.0448 144.645 10.8657C144.441 10.6867 144.338 10.4342 144.338 10.1084ZM157.418 10.1084C157.418 9.77897 157.515 9.52474 157.708 9.3457C157.905 9.16667 158.19 9.07715 158.562 9.07715C158.917 9.07715 159.189 9.16667 159.379 9.3457C159.568 9.52474 159.663 9.77897 159.663 10.1084C159.663 10.4307 159.565 10.6831 159.368 10.8657C159.174 11.0448 158.906 11.1343 158.562 11.1343C158.208 11.1343 157.928 11.0448 157.724 10.8657C157.52 10.6867 157.418 10.4342 157.418 10.1084ZM170.498 10.1084C170.498 9.77897 170.595 9.52474 170.788 9.3457C170.985 9.16667 171.269 9.07715 171.642 9.07715C171.996 9.07715 172.269 9.16667 172.458 9.3457C172.648 9.52474 172.743 9.77897 172.743 10.1084C172.743 10.4307 172.644 10.6831 172.448 10.8657C172.254 11.0448 171.986 11.1343 171.642 11.1343C171.287 11.1343 171.008 11.0448 170.804 10.8657C170.6 10.6867 170.498 10.4342 170.498 10.1084ZM183.578 10.1084C183.578 9.77897 183.674 9.52474 183.868 9.3457C184.065 9.16667 184.349 9.07715 184.722 9.07715C185.076 9.07715 185.348 9.16667 185.538 9.3457C185.728 9.52474 185.823 9.77897 185.823 10.1084C185.823 10.4307 185.724 10.6831 185.527 10.8657C185.334 11.0448 185.065 11.1343 184.722 11.1343C184.367 11.1343 184.088 11.0448 183.884 10.8657C183.68 10.6867 183.578 10.4342 183.578 10.1084ZM196.657 10.1084C196.657 9.77897 196.754 9.52474 196.947 9.3457C197.144 9.16667 197.429 9.07715 197.801 9.07715C198.156 9.07715 198.428 9.16667 198.618 9.3457C198.807 9.52474 198.902 9.77897 198.902 10.1084C198.902 10.4307 198.804 10.6831 198.607 10.8657C198.414 11.0448 198.145 11.1343 197.801 11.1343C197.447 11.1343 197.167 11.0448 196.963 10.8657C196.759 10.6867 196.657 10.4342 196.657 10.1084ZM209.737 10.1084C209.737 9.77897 209.834 9.52474 210.027 9.3457C210.224 9.16667 210.509 9.07715 210.881 9.07715C211.235 9.07715 211.508 9.16667 211.697 9.3457C211.887 9.52474 211.982 9.77897 211.982 10.1084C211.982 10.4307 211.884 10.6831 211.687 10.8657C211.493 11.0448 211.225 11.1343 210.881 11.1343C210.526 11.1343 210.247 11.0448 210.043 10.8657C209.839 10.6867 209.737 10.4342 209.737 10.1084ZM222.817 10.1084C222.817 9.77897 222.913 9.52474 223.107 9.3457C223.304 9.16667 223.588 9.07715 223.961 9.07715C224.315 9.07715 224.587 9.16667 224.777 9.3457C224.967 9.52474 225.062 9.77897 225.062 10.1084C225.062 10.4307 224.963 10.6831 224.766 10.8657C224.573 11.0448 224.304 11.1343 223.961 11.1343C223.606 11.1343 223.327 11.0448 223.123 10.8657C222.919 10.6867 222.817 10.4342 222.817 10.1084ZM235.896 10.1084C235.896 9.77897 235.993 9.52474 236.186 9.3457C236.383 9.16667 236.668 9.07715 237.04 9.07715C237.395 9.07715 237.667 9.16667 237.857 9.3457C238.047 9.52474 238.141 9.77897 238.141 10.1084C238.141 10.4307 238.043 10.6831 237.846 10.8657C237.653 11.0448 237.384 11.1343 237.04 11.1343C236.686 11.1343 236.407 11.0448 236.202 10.8657C235.998 10.6867 235.896 10.4342 235.896 10.1084ZM248.976 10.1084C248.976 9.77897 249.073 9.52474 249.266 9.3457C249.463 9.16667 249.748 9.07715 250.12 9.07715C250.475 9.07715 250.747 9.16667 250.936 9.3457C251.126 9.52474 251.221 9.77897 251.221 10.1084C251.221 10.4307 251.123 10.6831 250.926 10.8657C250.732 11.0448 250.464 11.1343 250.12 11.1343C249.766 11.1343 249.486 11.0448 249.282 10.8657C249.078 10.6867 248.976 10.4342 248.976 10.1084ZM262.056 10.1084C262.056 9.77897 262.152 9.52474 262.346 9.3457C262.543 9.16667 262.827 9.07715 263.2 9.07715C263.554 9.07715 263.826 9.16667 264.016 9.3457C264.206 9.52474 264.301 9.77897 264.301 10.1084C264.301 10.4307 264.202 10.6831 264.005 10.8657C263.812 11.0448 263.543 11.1343 263.2 11.1343C262.845 11.1343 262.566 11.0448 262.362 10.8657C262.158 10.6867 262.056 10.4342 262.056 10.1084ZM275.135 10.1084C275.135 9.77897 275.232 9.52474 275.425 9.3457C275.622 9.16667 275.907 9.07715 276.279 9.07715C276.634 9.07715 276.906 9.16667 277.096 9.3457C277.286 9.52474 277.38 9.77897 277.38 10.1084C277.38 10.4307 277.282 10.6831 277.085 10.8657C276.892 11.0448 276.623 11.1343 276.279 11.1343C275.925 11.1343 275.646 11.0448 275.441 10.8657C275.237 10.6867 275.135 10.4342 275.135 10.1084ZM288.215 10.1084C288.215 9.77897 288.312 9.52474 288.505 9.3457C288.702 9.16667 288.987 9.07715 289.359 9.07715C289.714 9.07715 289.986 9.16667 290.175 9.3457C290.365 9.52474 290.46 9.77897 290.46 10.1084C290.46 10.4307 290.362 10.6831 290.165 10.8657C289.971 11.0448 289.703 11.1343 289.359 11.1343C289.005 11.1343 288.725 11.0448 288.521 10.8657C288.317 10.6867 288.215 10.4342 288.215 10.1084ZM301.295 10.1084C301.295 9.77897 301.391 9.52474 301.585 9.3457C301.782 9.16667 302.066 9.07715 302.439 9.07715C302.793 9.07715 303.065 9.16667 303.255 9.3457C303.445 9.52474 303.54 9.77897 303.54 10.1084C303.54 10.4307 303.441 10.6831 303.244 10.8657C303.051 11.0448 302.783 11.1343 302.439 11.1343C302.084 11.1343 301.805 11.0448 301.601 10.8657C301.397 10.6867 301.295 10.4342 301.295 10.1084ZM314.374 10.1084C314.374 9.77897 314.471 9.52474 314.664 9.3457C314.861 9.16667 315.146 9.07715 315.518 9.07715C315.873 9.07715 316.145 9.16667 316.335 9.3457C316.525 9.52474 316.62 9.77897 316.62 10.1084C316.62 10.4307 316.521 10.6831 316.324 10.8657C316.131 11.0448 315.862 11.1343 315.518 11.1343C315.164 11.1343 314.885 11.0448 314.681 10.8657C314.476 10.6867 314.374 10.4342 314.374 10.1084ZM327.454 10.1084C327.454 9.77897 327.551 9.52474 327.744 9.3457C327.941 9.16667 328.226 9.07715 328.598 9.07715C328.953 9.07715 329.225 9.16667 329.415 9.3457C329.604 9.52474 329.699 9.77897 329.699 10.1084C329.699 10.4307 329.601 10.6831 329.404 10.8657C329.21 11.0448 328.942 11.1343 328.598 11.1343C328.244 11.1343 327.964 11.0448 327.76 10.8657C327.556 10.6867 327.454 10.4342 327.454 10.1084ZM340.534 10.1084C340.534 9.77897 340.63 9.52474 340.824 9.3457C341.021 9.16667 341.305 9.07715 341.678 9.07715C342.032 9.07715 342.304 9.16667 342.494 9.3457C342.684 9.52474 342.779 9.77897 342.779 10.1084C342.779 10.4307 342.68 10.6831 342.483 10.8657C342.29 11.0448 342.022 11.1343 341.678 11.1343C341.323 11.1343 341.044 11.0448 340.84 10.8657C340.636 10.6867 340.534 10.4342 340.534 10.1084ZM0.461914 24.1084C0.461914 23.779 0.558594 23.5247 0.751953 23.3457C0.948893 23.1667 1.23356 23.0771 1.60596 23.0771C1.96045 23.0771 2.23258 23.1667 2.42236 23.3457C2.61214 23.5247 2.70703 23.779 2.70703 24.1084C2.70703 24.4307 2.60856 24.6831 2.41162 24.8657C2.21826 25.0448 1.94971 25.1343 1.60596 25.1343C1.25146 25.1343 0.972168 25.0448 0.768066 24.8657C0.563965 24.6867 0.461914 24.4342 0.461914 24.1084ZM13.5416 24.1084C13.5416 23.779 13.6383 23.5247 13.8316 23.3457C14.0286 23.1667 14.3132 23.0771 14.6856 23.0771C15.0401 23.0771 15.3123 23.1667 15.5021 23.3457C15.6918 23.5247 15.7867 23.779 15.7867 24.1084C15.7867 24.4307 15.6882 24.6831 15.4913 24.8657C15.2979 25.0448 15.0294 25.1343 14.6856 25.1343C14.3312 25.1343 14.0519 25.0448 13.8478 24.8657C13.6437 24.6867 13.5416 24.4342 13.5416 24.1084ZM26.6213 24.1084C26.6213 23.779 26.718 23.5247 26.9113 23.3457C27.1083 23.1667 27.3929 23.0771 27.7653 23.0771C28.1198 23.0771 28.392 23.1667 28.5817 23.3457C28.7715 23.5247 28.8664 23.779 28.8664 24.1084C28.8664 24.4307 28.7679 24.6831 28.571 24.8657C28.3776 25.0448 28.1091 25.1343 27.7653 25.1343C27.4108 25.1343 27.1315 25.0448 26.9274 24.8657C26.7233 24.6867 26.6213 24.4342 26.6213 24.1084ZM39.701 24.1084C39.701 23.779 39.7977 23.5247 39.991 23.3457C40.188 23.1667 40.4726 23.0771 40.845 23.0771C41.1995 23.0771 41.4716 23.1667 41.6614 23.3457C41.8512 23.5247 41.9461 23.779 41.9461 24.1084C41.9461 24.4307 41.8476 24.6831 41.6507 24.8657C41.4573 25.0448 41.1888 25.1343 40.845 25.1343C40.4905 25.1343 40.2112 25.0448 40.0071 24.8657C39.803 24.6867 39.701 24.4342 39.701 24.1084ZM52.7807 24.1084C52.7807 23.779 52.8773 23.5247 53.0707 23.3457C53.2676 23.1667 53.5523 23.0771 53.9247 23.0771C54.2792 23.0771 54.5513 23.1667 54.7411 23.3457C54.9309 23.5247 55.0258 23.779 55.0258 24.1084C55.0258 24.4307 54.9273 24.6831 54.7304 24.8657C54.537 25.0448 54.2685 25.1343 53.9247 25.1343C53.5702 25.1343 53.2909 25.0448 53.0868 24.8657C52.8827 24.6867 52.7807 24.4342 52.7807 24.1084ZM65.8604 24.1084C65.8604 23.779 65.957 23.5247 66.1504 23.3457C66.3473 23.1667 66.632 23.0771 67.0044 23.0771C67.3589 23.0771 67.631 23.1667 67.8208 23.3457C68.0106 23.5247 68.1055 23.779 68.1055 24.1084C68.1055 24.4307 68.007 24.6831 67.8101 24.8657C67.6167 25.0448 67.3481 25.1343 67.0044 25.1343C66.6499 25.1343 66.3706 25.0448 66.1665 24.8657C65.9624 24.6867 65.8604 24.4342 65.8604 24.1084ZM78.94 24.1084C78.94 23.779 79.0367 23.5247 79.2301 23.3457C79.427 23.1667 79.7117 23.0771 80.0841 23.0771C80.4386 23.0771 80.7107 23.1667 80.9005 23.3457C81.0903 23.5247 81.1852 23.779 81.1852 24.1084C81.1852 24.4307 81.0867 24.6831 80.8897 24.8657C80.6964 25.0448 80.4278 25.1343 80.0841 25.1343C79.7296 25.1343 79.4503 25.0448 79.2462 24.8657C79.0421 24.6867 78.94 24.4342 78.94 24.1084ZM92.0197 24.1084C92.0197 23.779 92.1164 23.5247 92.3098 23.3457C92.5067 23.1667 92.7914 23.0771 93.1638 23.0771C93.5183 23.0771 93.7904 23.1667 93.9802 23.3457C94.1699 23.5247 94.2648 23.779 94.2648 24.1084C94.2648 24.4307 94.1664 24.6831 93.9694 24.8657C93.7761 25.0448 93.5075 25.1343 93.1638 25.1343C92.8093 25.1343 92.53 25.0448 92.3259 24.8657C92.1218 24.6867 92.0197 24.4342 92.0197 24.1084ZM105.099 24.1084C105.099 23.779 105.196 23.5247 105.389 23.3457C105.586 23.1667 105.871 23.0771 106.243 23.0771C106.598 23.0771 106.87 23.1667 107.06 23.3457C107.25 23.5247 107.345 23.779 107.345 24.1084C107.345 24.4307 107.246 24.6831 107.049 24.8657C106.856 25.0448 106.587 25.1343 106.243 25.1343C105.889 25.1343 105.61 25.0448 105.406 24.8657C105.201 24.6867 105.099 24.4342 105.099 24.1084ZM118.179 24.1084C118.179 23.779 118.276 23.5247 118.469 23.3457C118.666 23.1667 118.951 23.0771 119.323 23.0771C119.678 23.0771 119.95 23.1667 120.14 23.3457C120.329 23.5247 120.424 23.779 120.424 24.1084C120.424 24.4307 120.326 24.6831 120.129 24.8657C119.935 25.0448 119.667 25.1343 119.323 25.1343C118.969 25.1343 118.689 25.0448 118.485 24.8657C118.281 24.6867 118.179 24.4342 118.179 24.1084ZM131.259 24.1084C131.259 23.779 131.355 23.5247 131.549 23.3457C131.746 23.1667 132.03 23.0771 132.403 23.0771C132.757 23.0771 133.029 23.1667 133.219 23.3457C133.409 23.5247 133.504 23.779 133.504 24.1084C133.504 24.4307 133.405 24.6831 133.208 24.8657C133.015 25.0448 132.747 25.1343 132.403 25.1343C132.048 25.1343 131.769 25.0448 131.565 24.8657C131.361 24.6867 131.259 24.4342 131.259 24.1084ZM144.338 24.1084C144.338 23.779 144.435 23.5247 144.629 23.3457C144.825 23.1667 145.11 23.0771 145.483 23.0771C145.837 23.0771 146.109 23.1667 146.299 23.3457C146.489 23.5247 146.584 23.779 146.584 24.1084C146.584 24.4307 146.485 24.6831 146.288 24.8657C146.095 25.0448 145.826 25.1343 145.483 25.1343C145.128 25.1343 144.849 25.0448 144.645 24.8657C144.441 24.6867 144.338 24.4342 144.338 24.1084ZM157.418 24.1084C157.418 23.779 157.515 23.5247 157.708 23.3457C157.905 23.1667 158.19 23.0771 158.562 23.0771C158.917 23.0771 159.189 23.1667 159.379 23.3457C159.568 23.5247 159.663 23.779 159.663 24.1084C159.663 24.4307 159.565 24.6831 159.368 24.8657C159.174 25.0448 158.906 25.1343 158.562 25.1343C158.208 25.1343 157.928 25.0448 157.724 24.8657C157.52 24.6867 157.418 24.4342 157.418 24.1084ZM170.498 24.1084C170.498 23.779 170.595 23.5247 170.788 23.3457C170.985 23.1667 171.269 23.0771 171.642 23.0771C171.996 23.0771 172.269 23.1667 172.458 23.3457C172.648 23.5247 172.743 23.779 172.743 24.1084C172.743 24.4307 172.644 24.6831 172.448 24.8657C172.254 25.0448 171.986 25.1343 171.642 25.1343C171.287 25.1343 171.008 25.0448 170.804 24.8657C170.6 24.6867 170.498 24.4342 170.498 24.1084ZM183.578 24.1084C183.578 23.779 183.674 23.5247 183.868 23.3457C184.065 23.1667 184.349 23.0771 184.722 23.0771C185.076 23.0771 185.348 23.1667 185.538 23.3457C185.728 23.5247 185.823 23.779 185.823 24.1084C185.823 24.4307 185.724 24.6831 185.527 24.8657C185.334 25.0448 185.065 25.1343 184.722 25.1343C184.367 25.1343 184.088 25.0448 183.884 24.8657C183.68 24.6867 183.578 24.4342 183.578 24.1084ZM196.657 24.1084C196.657 23.779 196.754 23.5247 196.947 23.3457C197.144 23.1667 197.429 23.0771 197.801 23.0771C198.156 23.0771 198.428 23.1667 198.618 23.3457C198.807 23.5247 198.902 23.779 198.902 24.1084C198.902 24.4307 198.804 24.6831 198.607 24.8657C198.414 25.0448 198.145 25.1343 197.801 25.1343C197.447 25.1343 197.167 25.0448 196.963 24.8657C196.759 24.6867 196.657 24.4342 196.657 24.1084ZM209.737 24.1084C209.737 23.779 209.834 23.5247 210.027 23.3457C210.224 23.1667 210.509 23.0771 210.881 23.0771C211.235 23.0771 211.508 23.1667 211.697 23.3457C211.887 23.5247 211.982 23.779 211.982 24.1084C211.982 24.4307 211.884 24.6831 211.687 24.8657C211.493 25.0448 211.225 25.1343 210.881 25.1343C210.526 25.1343 210.247 25.0448 210.043 24.8657C209.839 24.6867 209.737 24.4342 209.737 24.1084ZM222.817 24.1084C222.817 23.779 222.913 23.5247 223.107 23.3457C223.304 23.1667 223.588 23.0771 223.961 23.0771C224.315 23.0771 224.587 23.1667 224.777 23.3457C224.967 23.5247 225.062 23.779 225.062 24.1084C225.062 24.4307 224.963 24.6831 224.766 24.8657C224.573 25.0448 224.304 25.1343 223.961 25.1343C223.606 25.1343 223.327 25.0448 223.123 24.8657C222.919 24.6867 222.817 24.4342 222.817 24.1084ZM235.896 24.1084C235.896 23.779 235.993 23.5247 236.186 23.3457C236.383 23.1667 236.668 23.0771 237.04 23.0771C237.395 23.0771 237.667 23.1667 237.857 23.3457C238.047 23.5247 238.141 23.779 238.141 24.1084C238.141 24.4307 238.043 24.6831 237.846 24.8657C237.653 25.0448 237.384 25.1343 237.04 25.1343C236.686 25.1343 236.407 25.0448 236.202 24.8657C235.998 24.6867 235.896 24.4342 235.896 24.1084ZM248.976 24.1084C248.976 23.779 249.073 23.5247 249.266 23.3457C249.463 23.1667 249.748 23.0771 250.12 23.0771C250.475 23.0771 250.747 23.1667 250.936 23.3457C251.126 23.5247 251.221 23.779 251.221 24.1084C251.221 24.4307 251.123 24.6831 250.926 24.8657C250.732 25.0448 250.464 25.1343 250.12 25.1343C249.766 25.1343 249.486 25.0448 249.282 24.8657C249.078 24.6867 248.976 24.4342 248.976 24.1084ZM262.056 24.1084C262.056 23.779 262.152 23.5247 262.346 23.3457C262.543 23.1667 262.827 23.0771 263.2 23.0771C263.554 23.0771 263.826 23.1667 264.016 23.3457C264.206 23.5247 264.301 23.779 264.301 24.1084C264.301 24.4307 264.202 24.6831 264.005 24.8657C263.812 25.0448 263.543 25.1343 263.2 25.1343C262.845 25.1343 262.566 25.0448 262.362 24.8657C262.158 24.6867 262.056 24.4342 262.056 24.1084ZM275.135 24.1084C275.135 23.779 275.232 23.5247 275.425 23.3457C275.622 23.1667 275.907 23.0771 276.279 23.0771C276.634 23.0771 276.906 23.1667 277.096 23.3457C277.286 23.5247 277.38 23.779 277.38 24.1084C277.38 24.4307 277.282 24.6831 277.085 24.8657C276.892 25.0448 276.623 25.1343 276.279 25.1343C275.925 25.1343 275.646 25.0448 275.441 24.8657C275.237 24.6867 275.135 24.4342 275.135 24.1084ZM288.215 24.1084C288.215 23.779 288.312 23.5247 288.505 23.3457C288.702 23.1667 288.987 23.0771 289.359 23.0771C289.714 23.0771 289.986 23.1667 290.175 23.3457C290.365 23.5247 290.46 23.779 290.46 24.1084C290.46 24.4307 290.362 24.6831 290.165 24.8657C289.971 25.0448 289.703 25.1343 289.359 25.1343C289.005 25.1343 288.725 25.0448 288.521 24.8657C288.317 24.6867 288.215 24.4342 288.215 24.1084ZM301.295 24.1084C301.295 23.779 301.391 23.5247 301.585 23.3457C301.782 23.1667 302.066 23.0771 302.439 23.0771C302.793 23.0771 303.065 23.1667 303.255 23.3457C303.445 23.5247 303.54 23.779 303.54 24.1084C303.54 24.4307 303.441 24.6831 303.244 24.8657C303.051 25.0448 302.783 25.1343 302.439 25.1343C302.084 25.1343 301.805 25.0448 301.601 24.8657C301.397 24.6867 301.295 24.4342 301.295 24.1084ZM314.374 24.1084C314.374 23.779 314.471 23.5247 314.664 23.3457C314.861 23.1667 315.146 23.0771 315.518 23.0771C315.873 23.0771 316.145 23.1667 316.335 23.3457C316.525 23.5247 316.62 23.779 316.62 24.1084C316.62 24.4307 316.521 24.6831 316.324 24.8657C316.131 25.0448 315.862 25.1343 315.518 25.1343C315.164 25.1343 314.885 25.0448 314.681 24.8657C314.476 24.6867 314.374 24.4342 314.374 24.1084ZM327.454 24.1084C327.454 23.779 327.551 23.5247 327.744 23.3457C327.941 23.1667 328.226 23.0771 328.598 23.0771C328.953 23.0771 329.225 23.1667 329.415 23.3457C329.604 23.5247 329.699 23.779 329.699 24.1084C329.699 24.4307 329.601 24.6831 329.404 24.8657C329.21 25.0448 328.942 25.1343 328.598 25.1343C328.244 25.1343 327.964 25.0448 327.76 24.8657C327.556 24.6867 327.454 24.4342 327.454 24.1084ZM340.534 24.1084C340.534 23.779 340.63 23.5247 340.824 23.3457C341.021 23.1667 341.305 23.0771 341.678 23.0771C342.032 23.0771 342.304 23.1667 342.494 23.3457C342.684 23.5247 342.779 23.779 342.779 24.1084C342.779 24.4307 342.68 24.6831 342.483 24.8657C342.29 25.0448 342.022 25.1343 341.678 25.1343C341.323 25.1343 341.044 25.0448 340.84 24.8657C340.636 24.6867 340.534 24.4342 340.534 24.1084Z" fill="url(#paint0_linear)"/>
<defs>
<linearGradient id="paint0_linear" x1="0" y1="22.2919" x2="347" y2="22.2919" gradientUnits="userSpaceOnUse">
<stop stop-color="#0F0F13"/>
<stop offset="1" stop-color="#414690"/>
</linearGradient>
</defs>
</svg>
