<svg width="23" height="25" viewBox="0 0 23 25" fill="none" xmlns="http://www.w3.org/2000/svg">
<path d="M0.461914 1.1084C0.461914 0.778971 0.558594 0.52474 0.751953 0.345703C0.948893 0.166667 1.23356 0.0771484 1.60596 0.0771484C1.96045 0.0771484 2.23258 0.166667 2.42236 0.345703C2.61214 0.52474 2.70703 0.778971 2.70703 1.1084C2.70703 1.43066 2.60856 1.68311 2.41162 1.86572C2.21826 2.04476 1.94971 2.13428 1.60596 2.13428C1.25146 2.13428 0.972168 2.04476 0.768066 1.86572C0.563965 1.68669 0.461914 1.43424 0.461914 1.1084ZM10.2416 1.1084C10.2416 0.778971 10.3383 0.52474 10.5316 0.345703C10.7286 0.166667 11.0132 0.0771484 11.3856 0.0771484C11.7401 0.0771484 12.0123 0.166667 12.2021 0.345703C12.3918 0.52474 12.4867 0.778971 12.4867 1.1084C12.4867 1.43066 12.3882 1.68311 12.1913 1.86572C11.9979 2.04476 11.7294 2.13428 11.3856 2.13428C11.0312 2.13428 10.7519 2.04476 10.5478 1.86572C10.3437 1.68669 10.2416 1.43424 10.2416 1.1084ZM20.0213 1.1084C20.0213 0.778971 20.118 0.52474 20.3113 0.345703C20.5083 0.166667 20.7929 0.0771484 21.1653 0.0771484C21.5198 0.0771484 21.792 0.166667 21.9817 0.345703C22.1715 0.52474 22.2664 0.778971 22.2664 1.1084C22.2664 1.43066 22.1679 1.68311 21.971 1.86572C21.7776 2.04476 21.5091 2.13428 21.1653 2.13428C20.8108 2.13428 20.5315 2.04476 20.3274 1.86572C20.1233 1.68669 20.0213 1.43424 20.0213 1.1084ZM0.461914 12.1084C0.461914 11.779 0.558594 11.5247 0.751953 11.3457C0.948893 11.1667 1.23356 11.0771 1.60596 11.0771C1.96045 11.0771 2.23258 11.1667 2.42236 11.3457C2.61214 11.5247 2.70703 11.779 2.70703 12.1084C2.70703 12.4307 2.60856 12.6831 2.41162 12.8657C2.21826 13.0448 1.94971 13.1343 1.60596 13.1343C1.25146 13.1343 0.972168 13.0448 0.768066 12.8657C0.563965 12.6867 0.461914 12.4342 0.461914 12.1084ZM10.2416 12.1084C10.2416 11.779 10.3383 11.5247 10.5316 11.3457C10.7286 11.1667 11.0132 11.0771 11.3856 11.0771C11.7401 11.0771 12.0123 11.1667 12.2021 11.3457C12.3918 11.5247 12.4867 11.779 12.4867 12.1084C12.4867 12.4307 12.3882 12.6831 12.1913 12.8657C11.9979 13.0448 11.7294 13.1343 11.3856 13.1343C11.0312 13.1343 10.7519 13.0448 10.5478 12.8657C10.3437 12.6867 10.2416 12.4342 10.2416 12.1084ZM20.0213 12.1084C20.0213 11.779 20.118 11.5247 20.3113 11.3457C20.5083 11.1667 20.7929 11.0771 21.1653 11.0771C21.5198 11.0771 21.792 11.1667 21.9817 11.3457C22.1715 11.5247 22.2664 11.779 22.2664 12.1084C22.2664 12.4307 22.1679 12.6831 21.971 12.8657C21.7776 13.0448 21.5091 13.1343 21.1653 13.1343C20.8108 13.1343 20.5315 13.0448 20.3274 12.8657C20.1233 12.6867 20.0213 12.4342 20.0213 12.1084ZM0.461914 23.1084C0.461914 22.779 0.558594 22.5247 0.751953 22.3457C0.948893 22.1667 1.23356 22.0771 1.60596 22.0771C1.96045 22.0771 2.23258 22.1667 2.42236 22.3457C2.61214 22.5247 2.70703 22.779 2.70703 23.1084C2.70703 23.4307 2.60856 23.6831 2.41162 23.8657C2.21826 24.0448 1.94971 24.1343 1.60596 24.1343C1.25146 24.1343 0.972168 24.0448 0.768066 23.8657C0.563965 23.6867 0.461914 23.4342 0.461914 23.1084ZM10.2416 23.1084C10.2416 22.779 10.3383 22.5247 10.5316 22.3457C10.7286 22.1667 11.0132 22.0771 11.3856 22.0771C11.7401 22.0771 12.0123 22.1667 12.2021 22.3457C12.3918 22.5247 12.4867 22.779 12.4867 23.1084C12.4867 23.4307 12.3882 23.6831 12.1913 23.8657C11.9979 24.0448 11.7294 24.1343 11.3856 24.1343C11.0312 24.1343 10.7519 24.0448 10.5478 23.8657C10.3437 23.6867 10.2416 23.4342 10.2416 23.1084ZM20.0213 23.1084C20.0213 22.779 20.118 22.5247 20.3113 22.3457C20.5083 22.1667 20.7929 22.0771 21.1653 22.0771C21.5198 22.0771 21.792 22.1667 21.9817 22.3457C22.1715 22.5247 22.2664 22.779 22.2664 23.1084C22.2664 23.4307 22.1679 23.6831 21.971 23.8657C21.7776 24.0448 21.5091 24.1343 21.1653 24.1343C20.8108 24.1343 20.5315 24.0448 20.3274 23.8657C20.1233 23.6867 20.0213 23.4342 20.0213 23.1084Z" fill="#B5B5BE"/>
</svg>
