<svg width="704" height="27" viewBox="0 0 704 27" fill="none" xmlns="http://www.w3.org/2000/svg">
<path d="M0.461914 10.1084C0.461914 9.77897 0.558594 9.52474 0.751953 9.3457C0.948893 9.16667 1.23356 9.07715 1.60596 9.07715C1.96045 9.07715 2.23258 9.16667 2.42236 9.3457C2.61214 9.52474 2.70703 9.77897 2.70703 10.1084C2.70703 10.4307 2.60856 10.6831 2.41162 10.8657C2.21826 11.0448 1.94971 11.1343 1.60596 11.1343C1.25146 11.1343 0.972168 11.0448 0.768066 10.8657C0.563965 10.6867 0.461914 10.4342 0.461914 10.1084ZM13.5416 10.1084C13.5416 9.77897 13.6383 9.52474 13.8316 9.3457C14.0286 9.16667 14.3132 9.07715 14.6856 9.07715C15.0401 9.07715 15.3123 9.16667 15.5021 9.3457C15.6918 9.52474 15.7867 9.77897 15.7867 10.1084C15.7867 10.4307 15.6882 10.6831 15.4913 10.8657C15.2979 11.0448 15.0294 11.1343 14.6856 11.1343C14.3312 11.1343 14.0519 11.0448 13.8478 10.8657C13.6437 10.6867 13.5416 10.4342 13.5416 10.1084ZM26.6213 10.1084C26.6213 9.77897 26.718 9.52474 26.9113 9.3457C27.1083 9.16667 27.3929 9.07715 27.7653 9.07715C28.1198 9.07715 28.392 9.16667 28.5817 9.3457C28.7715 9.52474 28.8664 9.77897 28.8664 10.1084C28.8664 10.4307 28.7679 10.6831 28.571 10.8657C28.3776 11.0448 28.1091 11.1343 27.7653 11.1343C27.4108 11.1343 27.1315 11.0448 26.9274 10.8657C26.7233 10.6867 26.6213 10.4342 26.6213 10.1084ZM39.701 10.1084C39.701 9.77897 39.7977 9.52474 39.991 9.3457C40.188 9.16667 40.4726 9.07715 40.845 9.07715C41.1995 9.07715 41.4716 9.16667 41.6614 9.3457C41.8512 9.52474 41.9461 9.77897 41.9461 10.1084C41.9461 10.4307 41.8476 10.6831 41.6507 10.8657C41.4573 11.0448 41.1888 11.1343 40.845 11.1343C40.4905 11.1343 40.2112 11.0448 40.0071 10.8657C39.803 10.6867 39.701 10.4342 39.701 10.1084ZM52.7807 10.1084C52.7807 9.77897 52.8773 9.52474 53.0707 9.3457C53.2676 9.16667 53.5523 9.07715 53.9247 9.07715C54.2792 9.07715 54.5513 9.16667 54.7411 9.3457C54.9309 9.52474 55.0258 9.77897 55.0258 10.1084C55.0258 10.4307 54.9273 10.6831 54.7304 10.8657C54.537 11.0448 54.2685 11.1343 53.9247 11.1343C53.5702 11.1343 53.2909 11.0448 53.0868 10.8657C52.8827 10.6867 52.7807 10.4342 52.7807 10.1084ZM65.8604 10.1084C65.8604 9.77897 65.957 9.52474 66.1504 9.3457C66.3473 9.16667 66.632 9.07715 67.0044 9.07715C67.3589 9.07715 67.631 9.16667 67.8208 9.3457C68.0106 9.52474 68.1055 9.77897 68.1055 10.1084C68.1055 10.4307 68.007 10.6831 67.8101 10.8657C67.6167 11.0448 67.3481 11.1343 67.0044 11.1343C66.6499 11.1343 66.3706 11.0448 66.1665 10.8657C65.9624 10.6867 65.8604 10.4342 65.8604 10.1084ZM78.94 10.1084C78.94 9.77897 79.0367 9.52474 79.2301 9.3457C79.427 9.16667 79.7117 9.07715 80.0841 9.07715C80.4386 9.07715 80.7107 9.16667 80.9005 9.3457C81.0903 9.52474 81.1852 9.77897 81.1852 10.1084C81.1852 10.4307 81.0867 10.6831 80.8897 10.8657C80.6964 11.0448 80.4278 11.1343 80.0841 11.1343C79.7296 11.1343 79.4503 11.0448 79.2462 10.8657C79.0421 10.6867 78.94 10.4342 78.94 10.1084ZM92.0197 10.1084C92.0197 9.77897 92.1164 9.52474 92.3098 9.3457C92.5067 9.16667 92.7914 9.07715 93.1638 9.07715C93.5183 9.07715 93.7904 9.16667 93.9802 9.3457C94.1699 9.52474 94.2648 9.77897 94.2648 10.1084C94.2648 10.4307 94.1664 10.6831 93.9694 10.8657C93.7761 11.0448 93.5075 11.1343 93.1638 11.1343C92.8093 11.1343 92.53 11.0448 92.3259 10.8657C92.1218 10.6867 92.0197 10.4342 92.0197 10.1084ZM105.099 10.1084C105.099 9.77897 105.196 9.52474 105.389 9.3457C105.586 9.16667 105.871 9.07715 106.243 9.07715C106.598 9.07715 106.87 9.16667 107.06 9.3457C107.25 9.52474 107.345 9.77897 107.345 10.1084C107.345 10.4307 107.246 10.6831 107.049 10.8657C106.856 11.0448 106.587 11.1343 106.243 11.1343C105.889 11.1343 105.61 11.0448 105.406 10.8657C105.201 10.6867 105.099 10.4342 105.099 10.1084ZM118.179 10.1084C118.179 9.77897 118.276 9.52474 118.469 9.3457C118.666 9.16667 118.951 9.07715 119.323 9.07715C119.678 9.07715 119.95 9.16667 120.14 9.3457C120.329 9.52474 120.424 9.77897 120.424 10.1084C120.424 10.4307 120.326 10.6831 120.129 10.8657C119.935 11.0448 119.667 11.1343 119.323 11.1343C118.969 11.1343 118.689 11.0448 118.485 10.8657C118.281 10.6867 118.179 10.4342 118.179 10.1084ZM131.259 10.1084C131.259 9.77897 131.355 9.52474 131.549 9.3457C131.746 9.16667 132.03 9.07715 132.403 9.07715C132.757 9.07715 133.029 9.16667 133.219 9.3457C133.409 9.52474 133.504 9.77897 133.504 10.1084C133.504 10.4307 133.405 10.6831 133.208 10.8657C133.015 11.0448 132.747 11.1343 132.403 11.1343C132.048 11.1343 131.769 11.0448 131.565 10.8657C131.361 10.6867 131.259 10.4342 131.259 10.1084ZM144.338 10.1084C144.338 9.77897 144.435 9.52474 144.629 9.3457C144.825 9.16667 145.11 9.07715 145.483 9.07715C145.837 9.07715 146.109 9.16667 146.299 9.3457C146.489 9.52474 146.584 9.77897 146.584 10.1084C146.584 10.4307 146.485 10.6831 146.288 10.8657C146.095 11.0448 145.826 11.1343 145.483 11.1343C145.128 11.1343 144.849 11.0448 144.645 10.8657C144.441 10.6867 144.338 10.4342 144.338 10.1084ZM157.418 10.1084C157.418 9.77897 157.515 9.52474 157.708 9.3457C157.905 9.16667 158.19 9.07715 158.562 9.07715C158.917 9.07715 159.189 9.16667 159.379 9.3457C159.568 9.52474 159.663 9.77897 159.663 10.1084C159.663 10.4307 159.565 10.6831 159.368 10.8657C159.174 11.0448 158.906 11.1343 158.562 11.1343C158.208 11.1343 157.928 11.0448 157.724 10.8657C157.52 10.6867 157.418 10.4342 157.418 10.1084ZM170.498 10.1084C170.498 9.77897 170.595 9.52474 170.788 9.3457C170.985 9.16667 171.269 9.07715 171.642 9.07715C171.996 9.07715 172.269 9.16667 172.458 9.3457C172.648 9.52474 172.743 9.77897 172.743 10.1084C172.743 10.4307 172.644 10.6831 172.448 10.8657C172.254 11.0448 171.986 11.1343 171.642 11.1343C171.287 11.1343 171.008 11.0448 170.804 10.8657C170.6 10.6867 170.498 10.4342 170.498 10.1084ZM183.578 10.1084C183.578 9.77897 183.674 9.52474 183.868 9.3457C184.065 9.16667 184.349 9.07715 184.722 9.07715C185.076 9.07715 185.348 9.16667 185.538 9.3457C185.728 9.52474 185.823 9.77897 185.823 10.1084C185.823 10.4307 185.724 10.6831 185.527 10.8657C185.334 11.0448 185.065 11.1343 184.722 11.1343C184.367 11.1343 184.088 11.0448 183.884 10.8657C183.68 10.6867 183.578 10.4342 183.578 10.1084ZM196.657 10.1084C196.657 9.77897 196.754 9.52474 196.947 9.3457C197.144 9.16667 197.429 9.07715 197.801 9.07715C198.156 9.07715 198.428 9.16667 198.618 9.3457C198.807 9.52474 198.902 9.77897 198.902 10.1084C198.902 10.4307 198.804 10.6831 198.607 10.8657C198.414 11.0448 198.145 11.1343 197.801 11.1343C197.447 11.1343 197.167 11.0448 196.963 10.8657C196.759 10.6867 196.657 10.4342 196.657 10.1084ZM209.737 10.1084C209.737 9.77897 209.834 9.52474 210.027 9.3457C210.224 9.16667 210.509 9.07715 210.881 9.07715C211.235 9.07715 211.508 9.16667 211.697 9.3457C211.887 9.52474 211.982 9.77897 211.982 10.1084C211.982 10.4307 211.884 10.6831 211.687 10.8657C211.493 11.0448 211.225 11.1343 210.881 11.1343C210.526 11.1343 210.247 11.0448 210.043 10.8657C209.839 10.6867 209.737 10.4342 209.737 10.1084ZM222.817 10.1084C222.817 9.77897 222.913 9.52474 223.107 9.3457C223.304 9.16667 223.588 9.07715 223.961 9.07715C224.315 9.07715 224.587 9.16667 224.777 9.3457C224.967 9.52474 225.062 9.77897 225.062 10.1084C225.062 10.4307 224.963 10.6831 224.766 10.8657C224.573 11.0448 224.304 11.1343 223.961 11.1343C223.606 11.1343 223.327 11.0448 223.123 10.8657C222.919 10.6867 222.817 10.4342 222.817 10.1084ZM235.896 10.1084C235.896 9.77897 235.993 9.52474 236.186 9.3457C236.383 9.16667 236.668 9.07715 237.04 9.07715C237.395 9.07715 237.667 9.16667 237.857 9.3457C238.047 9.52474 238.141 9.77897 238.141 10.1084C238.141 10.4307 238.043 10.6831 237.846 10.8657C237.653 11.0448 237.384 11.1343 237.04 11.1343C236.686 11.1343 236.407 11.0448 236.202 10.8657C235.998 10.6867 235.896 10.4342 235.896 10.1084ZM248.976 10.1084C248.976 9.77897 249.073 9.52474 249.266 9.3457C249.463 9.16667 249.748 9.07715 250.12 9.07715C250.475 9.07715 250.747 9.16667 250.936 9.3457C251.126 9.52474 251.221 9.77897 251.221 10.1084C251.221 10.4307 251.123 10.6831 250.926 10.8657C250.732 11.0448 250.464 11.1343 250.12 11.1343C249.766 11.1343 249.486 11.0448 249.282 10.8657C249.078 10.6867 248.976 10.4342 248.976 10.1084ZM262.056 10.1084C262.056 9.77897 262.152 9.52474 262.346 9.3457C262.543 9.16667 262.827 9.07715 263.2 9.07715C263.554 9.07715 263.826 9.16667 264.016 9.3457C264.206 9.52474 264.301 9.77897 264.301 10.1084C264.301 10.4307 264.202 10.6831 264.005 10.8657C263.812 11.0448 263.543 11.1343 263.2 11.1343C262.845 11.1343 262.566 11.0448 262.362 10.8657C262.158 10.6867 262.056 10.4342 262.056 10.1084ZM275.135 10.1084C275.135 9.77897 275.232 9.52474 275.425 9.3457C275.622 9.16667 275.907 9.07715 276.279 9.07715C276.634 9.07715 276.906 9.16667 277.096 9.3457C277.286 9.52474 277.38 9.77897 277.38 10.1084C277.38 10.4307 277.282 10.6831 277.085 10.8657C276.892 11.0448 276.623 11.1343 276.279 11.1343C275.925 11.1343 275.646 11.0448 275.441 10.8657C275.237 10.6867 275.135 10.4342 275.135 10.1084ZM288.215 10.1084C288.215 9.77897 288.312 9.52474 288.505 9.3457C288.702 9.16667 288.987 9.07715 289.359 9.07715C289.714 9.07715 289.986 9.16667 290.175 9.3457C290.365 9.52474 290.46 9.77897 290.46 10.1084C290.46 10.4307 290.362 10.6831 290.165 10.8657C289.971 11.0448 289.703 11.1343 289.359 11.1343C289.005 11.1343 288.725 11.0448 288.521 10.8657C288.317 10.6867 288.215 10.4342 288.215 10.1084ZM301.295 10.1084C301.295 9.77897 301.391 9.52474 301.585 9.3457C301.782 9.16667 302.066 9.07715 302.439 9.07715C302.793 9.07715 303.065 9.16667 303.255 9.3457C303.445 9.52474 303.54 9.77897 303.54 10.1084C303.54 10.4307 303.441 10.6831 303.244 10.8657C303.051 11.0448 302.783 11.1343 302.439 11.1343C302.084 11.1343 301.805 11.0448 301.601 10.8657C301.397 10.6867 301.295 10.4342 301.295 10.1084ZM314.374 10.1084C314.374 9.77897 314.471 9.52474 314.664 9.3457C314.861 9.16667 315.146 9.07715 315.518 9.07715C315.873 9.07715 316.145 9.16667 316.335 9.3457C316.525 9.52474 316.62 9.77897 316.62 10.1084C316.62 10.4307 316.521 10.6831 316.324 10.8657C316.131 11.0448 315.862 11.1343 315.518 11.1343C315.164 11.1343 314.885 11.0448 314.681 10.8657C314.476 10.6867 314.374 10.4342 314.374 10.1084ZM327.454 10.1084C327.454 9.77897 327.551 9.52474 327.744 9.3457C327.941 9.16667 328.226 9.07715 328.598 9.07715C328.953 9.07715 329.225 9.16667 329.415 9.3457C329.604 9.52474 329.699 9.77897 329.699 10.1084C329.699 10.4307 329.601 10.6831 329.404 10.8657C329.21 11.0448 328.942 11.1343 328.598 11.1343C328.244 11.1343 327.964 11.0448 327.76 10.8657C327.556 10.6867 327.454 10.4342 327.454 10.1084ZM340.534 10.1084C340.534 9.77897 340.63 9.52474 340.824 9.3457C341.021 9.16667 341.305 9.07715 341.678 9.07715C342.032 9.07715 342.304 9.16667 342.494 9.3457C342.684 9.52474 342.779 9.77897 342.779 10.1084C342.779 10.4307 342.68 10.6831 342.483 10.8657C342.29 11.0448 342.022 11.1343 341.678 11.1343C341.323 11.1343 341.044 11.0448 340.84 10.8657C340.636 10.6867 340.534 10.4342 340.534 10.1084ZM353.613 10.1084C353.613 9.77897 353.71 9.52474 353.904 9.3457C354.1 9.16667 354.385 9.07715 354.758 9.07715C355.112 9.07715 355.384 9.16667 355.574 9.3457C355.764 9.52474 355.859 9.77897 355.859 10.1084C355.859 10.4307 355.76 10.6831 355.563 10.8657C355.37 11.0448 355.101 11.1343 354.758 11.1343C354.403 11.1343 354.124 11.0448 353.92 10.8657C353.716 10.6867 353.613 10.4342 353.613 10.1084ZM366.693 10.1084C366.693 9.77897 366.79 9.52474 366.983 9.3457C367.18 9.16667 367.465 9.07715 367.837 9.07715C368.192 9.07715 368.464 9.16667 368.654 9.3457C368.843 9.52474 368.938 9.77897 368.938 10.1084C368.938 10.4307 368.84 10.6831 368.643 10.8657C368.449 11.0448 368.181 11.1343 367.837 11.1343C367.483 11.1343 367.203 11.0448 366.999 10.8657C366.795 10.6867 366.693 10.4342 366.693 10.1084ZM379.773 10.1084C379.773 9.77897 379.87 9.52474 380.063 9.3457C380.26 9.16667 380.544 9.07715 380.917 9.07715C381.271 9.07715 381.543 9.16667 381.733 9.3457C381.923 9.52474 382.018 9.77897 382.018 10.1084C382.018 10.4307 381.919 10.6831 381.723 10.8657C381.529 11.0448 381.261 11.1343 380.917 11.1343C380.562 11.1343 380.283 11.0448 380.079 10.8657C379.875 10.6867 379.773 10.4342 379.773 10.1084ZM392.853 10.1084C392.853 9.77897 392.949 9.52474 393.143 9.3457C393.34 9.16667 393.624 9.07715 393.997 9.07715C394.351 9.07715 394.623 9.16667 394.813 9.3457C395.003 9.52474 395.098 9.77897 395.098 10.1084C395.098 10.4307 394.999 10.6831 394.802 10.8657C394.609 11.0448 394.34 11.1343 393.997 11.1343C393.642 11.1343 393.363 11.0448 393.159 10.8657C392.955 10.6867 392.853 10.4342 392.853 10.1084ZM405.932 10.1084C405.932 9.77897 406.029 9.52474 406.222 9.3457C406.419 9.16667 406.704 9.07715 407.076 9.07715C407.431 9.07715 407.703 9.16667 407.893 9.3457C408.082 9.52474 408.177 9.77897 408.177 10.1084C408.177 10.4307 408.079 10.6831 407.882 10.8657C407.689 11.0448 407.42 11.1343 407.076 11.1343C406.722 11.1343 406.442 11.0448 406.238 10.8657C406.034 10.6867 405.932 10.4342 405.932 10.1084ZM419.012 10.1084C419.012 9.77897 419.109 9.52474 419.302 9.3457C419.499 9.16667 419.784 9.07715 420.156 9.07715C420.51 9.07715 420.783 9.16667 420.972 9.3457C421.162 9.52474 421.257 9.77897 421.257 10.1084C421.257 10.4307 421.159 10.6831 420.962 10.8657C420.768 11.0448 420.5 11.1343 420.156 11.1343C419.801 11.1343 419.522 11.0448 419.318 10.8657C419.114 10.6867 419.012 10.4342 419.012 10.1084ZM432.092 10.1084C432.092 9.77897 432.188 9.52474 432.382 9.3457C432.579 9.16667 432.863 9.07715 433.236 9.07715C433.59 9.07715 433.862 9.16667 434.052 9.3457C434.242 9.52474 434.337 9.77897 434.337 10.1084C434.337 10.4307 434.238 10.6831 434.041 10.8657C433.848 11.0448 433.579 11.1343 433.236 11.1343C432.881 11.1343 432.602 11.0448 432.398 10.8657C432.194 10.6867 432.092 10.4342 432.092 10.1084ZM445.171 10.1084C445.171 9.77897 445.268 9.52474 445.461 9.3457C445.658 9.16667 445.943 9.07715 446.315 9.07715C446.67 9.07715 446.942 9.16667 447.132 9.3457C447.321 9.52474 447.416 9.77897 447.416 10.1084C447.416 10.4307 447.318 10.6831 447.121 10.8657C446.928 11.0448 446.659 11.1343 446.315 11.1343C445.961 11.1343 445.682 11.0448 445.477 10.8657C445.273 10.6867 445.171 10.4342 445.171 10.1084ZM458.251 10.1084C458.251 9.77897 458.348 9.52474 458.541 9.3457C458.738 9.16667 459.023 9.07715 459.395 9.07715C459.75 9.07715 460.022 9.16667 460.211 9.3457C460.401 9.52474 460.496 9.77897 460.496 10.1084C460.496 10.4307 460.398 10.6831 460.201 10.8657C460.007 11.0448 459.739 11.1343 459.395 11.1343C459.041 11.1343 458.761 11.0448 458.557 10.8657C458.353 10.6867 458.251 10.4342 458.251 10.1084ZM471.331 10.1084C471.331 9.77897 471.427 9.52474 471.621 9.3457C471.818 9.16667 472.102 9.07715 472.475 9.07715C472.829 9.07715 473.101 9.16667 473.291 9.3457C473.481 9.52474 473.576 9.77897 473.576 10.1084C473.576 10.4307 473.477 10.6831 473.28 10.8657C473.087 11.0448 472.818 11.1343 472.475 11.1343C472.12 11.1343 471.841 11.0448 471.637 10.8657C471.433 10.6867 471.331 10.4342 471.331 10.1084ZM484.41 10.1084C484.41 9.77897 484.507 9.52474 484.7 9.3457C484.897 9.16667 485.182 9.07715 485.554 9.07715C485.909 9.07715 486.181 9.16667 486.371 9.3457C486.561 9.52474 486.655 9.77897 486.655 10.1084C486.655 10.4307 486.557 10.6831 486.36 10.8657C486.167 11.0448 485.898 11.1343 485.554 11.1343C485.2 11.1343 484.921 11.0448 484.716 10.8657C484.512 10.6867 484.41 10.4342 484.41 10.1084ZM497.49 10.1084C497.49 9.77897 497.587 9.52474 497.78 9.3457C497.977 9.16667 498.262 9.07715 498.634 9.07715C498.989 9.07715 499.261 9.16667 499.45 9.3457C499.64 9.52474 499.735 9.77897 499.735 10.1084C499.735 10.4307 499.637 10.6831 499.44 10.8657C499.246 11.0448 498.978 11.1343 498.634 11.1343C498.28 11.1343 498 11.0448 497.796 10.8657C497.592 10.6867 497.49 10.4342 497.49 10.1084ZM510.57 10.1084C510.57 9.77897 510.666 9.52474 510.86 9.3457C511.057 9.16667 511.341 9.07715 511.714 9.07715C512.068 9.07715 512.34 9.16667 512.53 9.3457C512.72 9.52474 512.815 9.77897 512.815 10.1084C512.815 10.4307 512.716 10.6831 512.519 10.8657C512.326 11.0448 512.057 11.1343 511.714 11.1343C511.359 11.1343 511.08 11.0448 510.876 10.8657C510.672 10.6867 510.57 10.4342 510.57 10.1084ZM523.649 10.1084C523.649 9.77897 523.746 9.52474 523.939 9.3457C524.136 9.16667 524.421 9.07715 524.793 9.07715C525.148 9.07715 525.42 9.16667 525.61 9.3457C525.8 9.52474 525.895 9.77897 525.895 10.1084C525.895 10.4307 525.796 10.6831 525.599 10.8657C525.406 11.0448 525.137 11.1343 524.793 11.1343C524.439 11.1343 524.16 11.0448 523.956 10.8657C523.751 10.6867 523.649 10.4342 523.649 10.1084ZM536.729 10.1084C536.729 9.77897 536.826 9.52474 537.019 9.3457C537.216 9.16667 537.501 9.07715 537.873 9.07715C538.228 9.07715 538.5 9.16667 538.69 9.3457C538.879 9.52474 538.974 9.77897 538.974 10.1084C538.974 10.4307 538.876 10.6831 538.679 10.8657C538.485 11.0448 538.217 11.1343 537.873 11.1343C537.519 11.1343 537.239 11.0448 537.035 10.8657C536.831 10.6867 536.729 10.4342 536.729 10.1084ZM549.809 10.1084C549.809 9.77897 549.905 9.52474 550.099 9.3457C550.296 9.16667 550.58 9.07715 550.953 9.07715C551.307 9.07715 551.579 9.16667 551.769 9.3457C551.959 9.52474 552.054 9.77897 552.054 10.1084C552.054 10.4307 551.955 10.6831 551.758 10.8657C551.565 11.0448 551.297 11.1343 550.953 11.1343C550.598 11.1343 550.319 11.0448 550.115 10.8657C549.911 10.6867 549.809 10.4342 549.809 10.1084ZM562.888 10.1084C562.888 9.77897 562.985 9.52474 563.179 9.3457C563.375 9.16667 563.66 9.07715 564.033 9.07715C564.387 9.07715 564.659 9.16667 564.849 9.3457C565.039 9.52474 565.134 9.77897 565.134 10.1084C565.134 10.4307 565.035 10.6831 564.838 10.8657C564.645 11.0448 564.376 11.1343 564.033 11.1343C563.678 11.1343 563.399 11.0448 563.195 10.8657C562.991 10.6867 562.888 10.4342 562.888 10.1084ZM575.968 10.1084C575.968 9.77897 576.065 9.52474 576.258 9.3457C576.455 9.16667 576.74 9.07715 577.112 9.07715C577.467 9.07715 577.739 9.16667 577.929 9.3457C578.118 9.52474 578.213 9.77897 578.213 10.1084C578.213 10.4307 578.115 10.6831 577.918 10.8657C577.724 11.0448 577.456 11.1343 577.112 11.1343C576.758 11.1343 576.478 11.0448 576.274 10.8657C576.07 10.6867 575.968 10.4342 575.968 10.1084ZM589.048 10.1084C589.048 9.77897 589.145 9.52474 589.338 9.3457C589.535 9.16667 589.819 9.07715 590.192 9.07715C590.546 9.07715 590.819 9.16667 591.008 9.3457C591.198 9.52474 591.293 9.77897 591.293 10.1084C591.293 10.4307 591.194 10.6831 590.998 10.8657C590.804 11.0448 590.536 11.1343 590.192 11.1343C589.837 11.1343 589.558 11.0448 589.354 10.8657C589.15 10.6867 589.048 10.4342 589.048 10.1084ZM602.128 10.1084C602.128 9.77897 602.224 9.52474 602.418 9.3457C602.614 9.16667 602.899 9.07715 603.272 9.07715C603.626 9.07715 603.898 9.16667 604.088 9.3457C604.278 9.52474 604.373 9.77897 604.373 10.1084C604.373 10.4307 604.274 10.6831 604.077 10.8657C603.884 11.0448 603.615 11.1343 603.272 11.1343C602.917 11.1343 602.638 11.0448 602.434 10.8657C602.23 10.6867 602.128 10.4342 602.128 10.1084ZM615.207 10.1084C615.207 9.77897 615.304 9.52474 615.497 9.3457C615.694 9.16667 615.979 9.07715 616.351 9.07715C616.706 9.07715 616.978 9.16667 617.168 9.3457C617.357 9.52474 617.452 9.77897 617.452 10.1084C617.452 10.4307 617.354 10.6831 617.157 10.8657C616.964 11.0448 616.695 11.1343 616.351 11.1343C615.997 11.1343 615.717 11.0448 615.513 10.8657C615.309 10.6867 615.207 10.4342 615.207 10.1084ZM628.287 10.1084C628.287 9.77897 628.384 9.52474 628.577 9.3457C628.774 9.16667 629.059 9.07715 629.431 9.07715C629.785 9.07715 630.058 9.16667 630.247 9.3457C630.437 9.52474 630.532 9.77897 630.532 10.1084C630.532 10.4307 630.434 10.6831 630.237 10.8657C630.043 11.0448 629.775 11.1343 629.431 11.1343C629.076 11.1343 628.797 11.0448 628.593 10.8657C628.389 10.6867 628.287 10.4342 628.287 10.1084ZM641.367 10.1084C641.367 9.77897 641.463 9.52474 641.657 9.3457C641.854 9.16667 642.138 9.07715 642.511 9.07715C642.865 9.07715 643.137 9.16667 643.327 9.3457C643.517 9.52474 643.612 9.77897 643.612 10.1084C643.612 10.4307 643.513 10.6831 643.316 10.8657C643.123 11.0448 642.854 11.1343 642.511 11.1343C642.156 11.1343 641.877 11.0448 641.673 10.8657C641.469 10.6867 641.367 10.4342 641.367 10.1084ZM654.446 10.1084C654.446 9.77897 654.543 9.52474 654.736 9.3457C654.933 9.16667 655.218 9.07715 655.59 9.07715C655.945 9.07715 656.217 9.16667 656.407 9.3457C656.597 9.52474 656.691 9.77897 656.691 10.1084C656.691 10.4307 656.593 10.6831 656.396 10.8657C656.203 11.0448 655.934 11.1343 655.59 11.1343C655.236 11.1343 654.957 11.0448 654.752 10.8657C654.548 10.6867 654.446 10.4342 654.446 10.1084ZM667.526 10.1084C667.526 9.77897 667.623 9.52474 667.816 9.3457C668.013 9.16667 668.298 9.07715 668.67 9.07715C669.024 9.07715 669.297 9.16667 669.486 9.3457C669.676 9.52474 669.771 9.77897 669.771 10.1084C669.771 10.4307 669.673 10.6831 669.476 10.8657C669.282 11.0448 669.014 11.1343 668.67 11.1343C668.315 11.1343 668.036 11.0448 667.832 10.8657C667.628 10.6867 667.526 10.4342 667.526 10.1084ZM680.606 10.1084C680.606 9.77897 680.702 9.52474 680.896 9.3457C681.093 9.16667 681.377 9.07715 681.75 9.07715C682.104 9.07715 682.376 9.16667 682.566 9.3457C682.756 9.52474 682.851 9.77897 682.851 10.1084C682.851 10.4307 682.752 10.6831 682.555 10.8657C682.362 11.0448 682.093 11.1343 681.75 11.1343C681.395 11.1343 681.116 11.0448 680.912 10.8657C680.708 10.6867 680.606 10.4342 680.606 10.1084ZM693.685 10.1084C693.685 9.77897 693.782 9.52474 693.975 9.3457C694.172 9.16667 694.457 9.07715 694.829 9.07715C695.184 9.07715 695.456 9.16667 695.646 9.3457C695.836 9.52474 695.93 9.77897 695.93 10.1084C695.93 10.4307 695.832 10.6831 695.635 10.8657C695.442 11.0448 695.173 11.1343 694.829 11.1343C694.475 11.1343 694.196 11.0448 693.991 10.8657C693.787 10.6867 693.685 10.4342 693.685 10.1084ZM0.461914 24.1084C0.461914 23.779 0.558594 23.5247 0.751953 23.3457C0.948893 23.1667 1.23356 23.0771 1.60596 23.0771C1.96045 23.0771 2.23258 23.1667 2.42236 23.3457C2.61214 23.5247 2.70703 23.779 2.70703 24.1084C2.70703 24.4307 2.60856 24.6831 2.41162 24.8657C2.21826 25.0448 1.94971 25.1343 1.60596 25.1343C1.25146 25.1343 0.972168 25.0448 0.768066 24.8657C0.563965 24.6867 0.461914 24.4342 0.461914 24.1084ZM13.5416 24.1084C13.5416 23.779 13.6383 23.5247 13.8316 23.3457C14.0286 23.1667 14.3132 23.0771 14.6856 23.0771C15.0401 23.0771 15.3123 23.1667 15.5021 23.3457C15.6918 23.5247 15.7867 23.779 15.7867 24.1084C15.7867 24.4307 15.6882 24.6831 15.4913 24.8657C15.2979 25.0448 15.0294 25.1343 14.6856 25.1343C14.3312 25.1343 14.0519 25.0448 13.8478 24.8657C13.6437 24.6867 13.5416 24.4342 13.5416 24.1084ZM26.6213 24.1084C26.6213 23.779 26.718 23.5247 26.9113 23.3457C27.1083 23.1667 27.3929 23.0771 27.7653 23.0771C28.1198 23.0771 28.392 23.1667 28.5817 23.3457C28.7715 23.5247 28.8664 23.779 28.8664 24.1084C28.8664 24.4307 28.7679 24.6831 28.571 24.8657C28.3776 25.0448 28.1091 25.1343 27.7653 25.1343C27.4108 25.1343 27.1315 25.0448 26.9274 24.8657C26.7233 24.6867 26.6213 24.4342 26.6213 24.1084ZM39.701 24.1084C39.701 23.779 39.7977 23.5247 39.991 23.3457C40.188 23.1667 40.4726 23.0771 40.845 23.0771C41.1995 23.0771 41.4716 23.1667 41.6614 23.3457C41.8512 23.5247 41.9461 23.779 41.9461 24.1084C41.9461 24.4307 41.8476 24.6831 41.6507 24.8657C41.4573 25.0448 41.1888 25.1343 40.845 25.1343C40.4905 25.1343 40.2112 25.0448 40.0071 24.8657C39.803 24.6867 39.701 24.4342 39.701 24.1084ZM52.7807 24.1084C52.7807 23.779 52.8773 23.5247 53.0707 23.3457C53.2676 23.1667 53.5523 23.0771 53.9247 23.0771C54.2792 23.0771 54.5513 23.1667 54.7411 23.3457C54.9309 23.5247 55.0258 23.779 55.0258 24.1084C55.0258 24.4307 54.9273 24.6831 54.7304 24.8657C54.537 25.0448 54.2685 25.1343 53.9247 25.1343C53.5702 25.1343 53.2909 25.0448 53.0868 24.8657C52.8827 24.6867 52.7807 24.4342 52.7807 24.1084ZM65.8604 24.1084C65.8604 23.779 65.957 23.5247 66.1504 23.3457C66.3473 23.1667 66.632 23.0771 67.0044 23.0771C67.3589 23.0771 67.631 23.1667 67.8208 23.3457C68.0106 23.5247 68.1055 23.779 68.1055 24.1084C68.1055 24.4307 68.007 24.6831 67.8101 24.8657C67.6167 25.0448 67.3481 25.1343 67.0044 25.1343C66.6499 25.1343 66.3706 25.0448 66.1665 24.8657C65.9624 24.6867 65.8604 24.4342 65.8604 24.1084ZM78.94 24.1084C78.94 23.779 79.0367 23.5247 79.2301 23.3457C79.427 23.1667 79.7117 23.0771 80.0841 23.0771C80.4386 23.0771 80.7107 23.1667 80.9005 23.3457C81.0903 23.5247 81.1852 23.779 81.1852 24.1084C81.1852 24.4307 81.0867 24.6831 80.8897 24.8657C80.6964 25.0448 80.4278 25.1343 80.0841 25.1343C79.7296 25.1343 79.4503 25.0448 79.2462 24.8657C79.0421 24.6867 78.94 24.4342 78.94 24.1084ZM92.0197 24.1084C92.0197 23.779 92.1164 23.5247 92.3098 23.3457C92.5067 23.1667 92.7914 23.0771 93.1638 23.0771C93.5183 23.0771 93.7904 23.1667 93.9802 23.3457C94.1699 23.5247 94.2648 23.779 94.2648 24.1084C94.2648 24.4307 94.1664 24.6831 93.9694 24.8657C93.7761 25.0448 93.5075 25.1343 93.1638 25.1343C92.8093 25.1343 92.53 25.0448 92.3259 24.8657C92.1218 24.6867 92.0197 24.4342 92.0197 24.1084ZM105.099 24.1084C105.099 23.779 105.196 23.5247 105.389 23.3457C105.586 23.1667 105.871 23.0771 106.243 23.0771C106.598 23.0771 106.87 23.1667 107.06 23.3457C107.25 23.5247 107.345 23.779 107.345 24.1084C107.345 24.4307 107.246 24.6831 107.049 24.8657C106.856 25.0448 106.587 25.1343 106.243 25.1343C105.889 25.1343 105.61 25.0448 105.406 24.8657C105.201 24.6867 105.099 24.4342 105.099 24.1084ZM118.179 24.1084C118.179 23.779 118.276 23.5247 118.469 23.3457C118.666 23.1667 118.951 23.0771 119.323 23.0771C119.678 23.0771 119.95 23.1667 120.14 23.3457C120.329 23.5247 120.424 23.779 120.424 24.1084C120.424 24.4307 120.326 24.6831 120.129 24.8657C119.935 25.0448 119.667 25.1343 119.323 25.1343C118.969 25.1343 118.689 25.0448 118.485 24.8657C118.281 24.6867 118.179 24.4342 118.179 24.1084ZM131.259 24.1084C131.259 23.779 131.355 23.5247 131.549 23.3457C131.746 23.1667 132.03 23.0771 132.403 23.0771C132.757 23.0771 133.029 23.1667 133.219 23.3457C133.409 23.5247 133.504 23.779 133.504 24.1084C133.504 24.4307 133.405 24.6831 133.208 24.8657C133.015 25.0448 132.747 25.1343 132.403 25.1343C132.048 25.1343 131.769 25.0448 131.565 24.8657C131.361 24.6867 131.259 24.4342 131.259 24.1084ZM144.338 24.1084C144.338 23.779 144.435 23.5247 144.629 23.3457C144.825 23.1667 145.11 23.0771 145.483 23.0771C145.837 23.0771 146.109 23.1667 146.299 23.3457C146.489 23.5247 146.584 23.779 146.584 24.1084C146.584 24.4307 146.485 24.6831 146.288 24.8657C146.095 25.0448 145.826 25.1343 145.483 25.1343C145.128 25.1343 144.849 25.0448 144.645 24.8657C144.441 24.6867 144.338 24.4342 144.338 24.1084ZM157.418 24.1084C157.418 23.779 157.515 23.5247 157.708 23.3457C157.905 23.1667 158.19 23.0771 158.562 23.0771C158.917 23.0771 159.189 23.1667 159.379 23.3457C159.568 23.5247 159.663 23.779 159.663 24.1084C159.663 24.4307 159.565 24.6831 159.368 24.8657C159.174 25.0448 158.906 25.1343 158.562 25.1343C158.208 25.1343 157.928 25.0448 157.724 24.8657C157.52 24.6867 157.418 24.4342 157.418 24.1084ZM170.498 24.1084C170.498 23.779 170.595 23.5247 170.788 23.3457C170.985 23.1667 171.269 23.0771 171.642 23.0771C171.996 23.0771 172.269 23.1667 172.458 23.3457C172.648 23.5247 172.743 23.779 172.743 24.1084C172.743 24.4307 172.644 24.6831 172.448 24.8657C172.254 25.0448 171.986 25.1343 171.642 25.1343C171.287 25.1343 171.008 25.0448 170.804 24.8657C170.6 24.6867 170.498 24.4342 170.498 24.1084ZM183.578 24.1084C183.578 23.779 183.674 23.5247 183.868 23.3457C184.065 23.1667 184.349 23.0771 184.722 23.0771C185.076 23.0771 185.348 23.1667 185.538 23.3457C185.728 23.5247 185.823 23.779 185.823 24.1084C185.823 24.4307 185.724 24.6831 185.527 24.8657C185.334 25.0448 185.065 25.1343 184.722 25.1343C184.367 25.1343 184.088 25.0448 183.884 24.8657C183.68 24.6867 183.578 24.4342 183.578 24.1084ZM196.657 24.1084C196.657 23.779 196.754 23.5247 196.947 23.3457C197.144 23.1667 197.429 23.0771 197.801 23.0771C198.156 23.0771 198.428 23.1667 198.618 23.3457C198.807 23.5247 198.902 23.779 198.902 24.1084C198.902 24.4307 198.804 24.6831 198.607 24.8657C198.414 25.0448 198.145 25.1343 197.801 25.1343C197.447 25.1343 197.167 25.0448 196.963 24.8657C196.759 24.6867 196.657 24.4342 196.657 24.1084ZM209.737 24.1084C209.737 23.779 209.834 23.5247 210.027 23.3457C210.224 23.1667 210.509 23.0771 210.881 23.0771C211.235 23.0771 211.508 23.1667 211.697 23.3457C211.887 23.5247 211.982 23.779 211.982 24.1084C211.982 24.4307 211.884 24.6831 211.687 24.8657C211.493 25.0448 211.225 25.1343 210.881 25.1343C210.526 25.1343 210.247 25.0448 210.043 24.8657C209.839 24.6867 209.737 24.4342 209.737 24.1084ZM222.817 24.1084C222.817 23.779 222.913 23.5247 223.107 23.3457C223.304 23.1667 223.588 23.0771 223.961 23.0771C224.315 23.0771 224.587 23.1667 224.777 23.3457C224.967 23.5247 225.062 23.779 225.062 24.1084C225.062 24.4307 224.963 24.6831 224.766 24.8657C224.573 25.0448 224.304 25.1343 223.961 25.1343C223.606 25.1343 223.327 25.0448 223.123 24.8657C222.919 24.6867 222.817 24.4342 222.817 24.1084ZM235.896 24.1084C235.896 23.779 235.993 23.5247 236.186 23.3457C236.383 23.1667 236.668 23.0771 237.04 23.0771C237.395 23.0771 237.667 23.1667 237.857 23.3457C238.047 23.5247 238.141 23.779 238.141 24.1084C238.141 24.4307 238.043 24.6831 237.846 24.8657C237.653 25.0448 237.384 25.1343 237.04 25.1343C236.686 25.1343 236.407 25.0448 236.202 24.8657C235.998 24.6867 235.896 24.4342 235.896 24.1084ZM248.976 24.1084C248.976 23.779 249.073 23.5247 249.266 23.3457C249.463 23.1667 249.748 23.0771 250.12 23.0771C250.475 23.0771 250.747 23.1667 250.936 23.3457C251.126 23.5247 251.221 23.779 251.221 24.1084C251.221 24.4307 251.123 24.6831 250.926 24.8657C250.732 25.0448 250.464 25.1343 250.12 25.1343C249.766 25.1343 249.486 25.0448 249.282 24.8657C249.078 24.6867 248.976 24.4342 248.976 24.1084ZM262.056 24.1084C262.056 23.779 262.152 23.5247 262.346 23.3457C262.543 23.1667 262.827 23.0771 263.2 23.0771C263.554 23.0771 263.826 23.1667 264.016 23.3457C264.206 23.5247 264.301 23.779 264.301 24.1084C264.301 24.4307 264.202 24.6831 264.005 24.8657C263.812 25.0448 263.543 25.1343 263.2 25.1343C262.845 25.1343 262.566 25.0448 262.362 24.8657C262.158 24.6867 262.056 24.4342 262.056 24.1084ZM275.135 24.1084C275.135 23.779 275.232 23.5247 275.425 23.3457C275.622 23.1667 275.907 23.0771 276.279 23.0771C276.634 23.0771 276.906 23.1667 277.096 23.3457C277.286 23.5247 277.38 23.779 277.38 24.1084C277.38 24.4307 277.282 24.6831 277.085 24.8657C276.892 25.0448 276.623 25.1343 276.279 25.1343C275.925 25.1343 275.646 25.0448 275.441 24.8657C275.237 24.6867 275.135 24.4342 275.135 24.1084ZM288.215 24.1084C288.215 23.779 288.312 23.5247 288.505 23.3457C288.702 23.1667 288.987 23.0771 289.359 23.0771C289.714 23.0771 289.986 23.1667 290.175 23.3457C290.365 23.5247 290.46 23.779 290.46 24.1084C290.46 24.4307 290.362 24.6831 290.165 24.8657C289.971 25.0448 289.703 25.1343 289.359 25.1343C289.005 25.1343 288.725 25.0448 288.521 24.8657C288.317 24.6867 288.215 24.4342 288.215 24.1084ZM301.295 24.1084C301.295 23.779 301.391 23.5247 301.585 23.3457C301.782 23.1667 302.066 23.0771 302.439 23.0771C302.793 23.0771 303.065 23.1667 303.255 23.3457C303.445 23.5247 303.54 23.779 303.54 24.1084C303.54 24.4307 303.441 24.6831 303.244 24.8657C303.051 25.0448 302.783 25.1343 302.439 25.1343C302.084 25.1343 301.805 25.0448 301.601 24.8657C301.397 24.6867 301.295 24.4342 301.295 24.1084ZM314.374 24.1084C314.374 23.779 314.471 23.5247 314.664 23.3457C314.861 23.1667 315.146 23.0771 315.518 23.0771C315.873 23.0771 316.145 23.1667 316.335 23.3457C316.525 23.5247 316.62 23.779 316.62 24.1084C316.62 24.4307 316.521 24.6831 316.324 24.8657C316.131 25.0448 315.862 25.1343 315.518 25.1343C315.164 25.1343 314.885 25.0448 314.681 24.8657C314.476 24.6867 314.374 24.4342 314.374 24.1084ZM327.454 24.1084C327.454 23.779 327.551 23.5247 327.744 23.3457C327.941 23.1667 328.226 23.0771 328.598 23.0771C328.953 23.0771 329.225 23.1667 329.415 23.3457C329.604 23.5247 329.699 23.779 329.699 24.1084C329.699 24.4307 329.601 24.6831 329.404 24.8657C329.21 25.0448 328.942 25.1343 328.598 25.1343C328.244 25.1343 327.964 25.0448 327.76 24.8657C327.556 24.6867 327.454 24.4342 327.454 24.1084ZM340.534 24.1084C340.534 23.779 340.63 23.5247 340.824 23.3457C341.021 23.1667 341.305 23.0771 341.678 23.0771C342.032 23.0771 342.304 23.1667 342.494 23.3457C342.684 23.5247 342.779 23.779 342.779 24.1084C342.779 24.4307 342.68 24.6831 342.483 24.8657C342.29 25.0448 342.022 25.1343 341.678 25.1343C341.323 25.1343 341.044 25.0448 340.84 24.8657C340.636 24.6867 340.534 24.4342 340.534 24.1084ZM353.613 24.1084C353.613 23.779 353.71 23.5247 353.904 23.3457C354.1 23.1667 354.385 23.0771 354.758 23.0771C355.112 23.0771 355.384 23.1667 355.574 23.3457C355.764 23.5247 355.859 23.779 355.859 24.1084C355.859 24.4307 355.76 24.6831 355.563 24.8657C355.37 25.0448 355.101 25.1343 354.758 25.1343C354.403 25.1343 354.124 25.0448 353.92 24.8657C353.716 24.6867 353.613 24.4342 353.613 24.1084ZM366.693 24.1084C366.693 23.779 366.79 23.5247 366.983 23.3457C367.18 23.1667 367.465 23.0771 367.837 23.0771C368.192 23.0771 368.464 23.1667 368.654 23.3457C368.843 23.5247 368.938 23.779 368.938 24.1084C368.938 24.4307 368.84 24.6831 368.643 24.8657C368.449 25.0448 368.181 25.1343 367.837 25.1343C367.483 25.1343 367.203 25.0448 366.999 24.8657C366.795 24.6867 366.693 24.4342 366.693 24.1084ZM379.773 24.1084C379.773 23.779 379.87 23.5247 380.063 23.3457C380.26 23.1667 380.544 23.0771 380.917 23.0771C381.271 23.0771 381.543 23.1667 381.733 23.3457C381.923 23.5247 382.018 23.779 382.018 24.1084C382.018 24.4307 381.919 24.6831 381.723 24.8657C381.529 25.0448 381.261 25.1343 380.917 25.1343C380.562 25.1343 380.283 25.0448 380.079 24.8657C379.875 24.6867 379.773 24.4342 379.773 24.1084ZM392.853 24.1084C392.853 23.779 392.949 23.5247 393.143 23.3457C393.34 23.1667 393.624 23.0771 393.997 23.0771C394.351 23.0771 394.623 23.1667 394.813 23.3457C395.003 23.5247 395.098 23.779 395.098 24.1084C395.098 24.4307 394.999 24.6831 394.802 24.8657C394.609 25.0448 394.34 25.1343 393.997 25.1343C393.642 25.1343 393.363 25.0448 393.159 24.8657C392.955 24.6867 392.853 24.4342 392.853 24.1084ZM405.932 24.1084C405.932 23.779 406.029 23.5247 406.222 23.3457C406.419 23.1667 406.704 23.0771 407.076 23.0771C407.431 23.0771 407.703 23.1667 407.893 23.3457C408.082 23.5247 408.177 23.779 408.177 24.1084C408.177 24.4307 408.079 24.6831 407.882 24.8657C407.689 25.0448 407.42 25.1343 407.076 25.1343C406.722 25.1343 406.442 25.0448 406.238 24.8657C406.034 24.6867 405.932 24.4342 405.932 24.1084ZM419.012 24.1084C419.012 23.779 419.109 23.5247 419.302 23.3457C419.499 23.1667 419.784 23.0771 420.156 23.0771C420.51 23.0771 420.783 23.1667 420.972 23.3457C421.162 23.5247 421.257 23.779 421.257 24.1084C421.257 24.4307 421.159 24.6831 420.962 24.8657C420.768 25.0448 420.5 25.1343 420.156 25.1343C419.801 25.1343 419.522 25.0448 419.318 24.8657C419.114 24.6867 419.012 24.4342 419.012 24.1084ZM432.092 24.1084C432.092 23.779 432.188 23.5247 432.382 23.3457C432.579 23.1667 432.863 23.0771 433.236 23.0771C433.59 23.0771 433.862 23.1667 434.052 23.3457C434.242 23.5247 434.337 23.779 434.337 24.1084C434.337 24.4307 434.238 24.6831 434.041 24.8657C433.848 25.0448 433.579 25.1343 433.236 25.1343C432.881 25.1343 432.602 25.0448 432.398 24.8657C432.194 24.6867 432.092 24.4342 432.092 24.1084ZM445.171 24.1084C445.171 23.779 445.268 23.5247 445.461 23.3457C445.658 23.1667 445.943 23.0771 446.315 23.0771C446.67 23.0771 446.942 23.1667 447.132 23.3457C447.321 23.5247 447.416 23.779 447.416 24.1084C447.416 24.4307 447.318 24.6831 447.121 24.8657C446.928 25.0448 446.659 25.1343 446.315 25.1343C445.961 25.1343 445.682 25.0448 445.477 24.8657C445.273 24.6867 445.171 24.4342 445.171 24.1084ZM458.251 24.1084C458.251 23.779 458.348 23.5247 458.541 23.3457C458.738 23.1667 459.023 23.0771 459.395 23.0771C459.75 23.0771 460.022 23.1667 460.211 23.3457C460.401 23.5247 460.496 23.779 460.496 24.1084C460.496 24.4307 460.398 24.6831 460.201 24.8657C460.007 25.0448 459.739 25.1343 459.395 25.1343C459.041 25.1343 458.761 25.0448 458.557 24.8657C458.353 24.6867 458.251 24.4342 458.251 24.1084ZM471.331 24.1084C471.331 23.779 471.427 23.5247 471.621 23.3457C471.818 23.1667 472.102 23.0771 472.475 23.0771C472.829 23.0771 473.101 23.1667 473.291 23.3457C473.481 23.5247 473.576 23.779 473.576 24.1084C473.576 24.4307 473.477 24.6831 473.28 24.8657C473.087 25.0448 472.818 25.1343 472.475 25.1343C472.12 25.1343 471.841 25.0448 471.637 24.8657C471.433 24.6867 471.331 24.4342 471.331 24.1084ZM484.41 24.1084C484.41 23.779 484.507 23.5247 484.7 23.3457C484.897 23.1667 485.182 23.0771 485.554 23.0771C485.909 23.0771 486.181 23.1667 486.371 23.3457C486.561 23.5247 486.655 23.779 486.655 24.1084C486.655 24.4307 486.557 24.6831 486.36 24.8657C486.167 25.0448 485.898 25.1343 485.554 25.1343C485.2 25.1343 484.921 25.0448 484.716 24.8657C484.512 24.6867 484.41 24.4342 484.41 24.1084ZM497.49 24.1084C497.49 23.779 497.587 23.5247 497.78 23.3457C497.977 23.1667 498.262 23.0771 498.634 23.0771C498.989 23.0771 499.261 23.1667 499.45 23.3457C499.64 23.5247 499.735 23.779 499.735 24.1084C499.735 24.4307 499.637 24.6831 499.44 24.8657C499.246 25.0448 498.978 25.1343 498.634 25.1343C498.28 25.1343 498 25.0448 497.796 24.8657C497.592 24.6867 497.49 24.4342 497.49 24.1084ZM510.57 24.1084C510.57 23.779 510.666 23.5247 510.86 23.3457C511.057 23.1667 511.341 23.0771 511.714 23.0771C512.068 23.0771 512.34 23.1667 512.53 23.3457C512.72 23.5247 512.815 23.779 512.815 24.1084C512.815 24.4307 512.716 24.6831 512.519 24.8657C512.326 25.0448 512.057 25.1343 511.714 25.1343C511.359 25.1343 511.08 25.0448 510.876 24.8657C510.672 24.6867 510.57 24.4342 510.57 24.1084ZM523.649 24.1084C523.649 23.779 523.746 23.5247 523.939 23.3457C524.136 23.1667 524.421 23.0771 524.793 23.0771C525.148 23.0771 525.42 23.1667 525.61 23.3457C525.8 23.5247 525.895 23.779 525.895 24.1084C525.895 24.4307 525.796 24.6831 525.599 24.8657C525.406 25.0448 525.137 25.1343 524.793 25.1343C524.439 25.1343 524.16 25.0448 523.956 24.8657C523.751 24.6867 523.649 24.4342 523.649 24.1084ZM536.729 24.1084C536.729 23.779 536.826 23.5247 537.019 23.3457C537.216 23.1667 537.501 23.0771 537.873 23.0771C538.228 23.0771 538.5 23.1667 538.69 23.3457C538.879 23.5247 538.974 23.779 538.974 24.1084C538.974 24.4307 538.876 24.6831 538.679 24.8657C538.485 25.0448 538.217 25.1343 537.873 25.1343C537.519 25.1343 537.239 25.0448 537.035 24.8657C536.831 24.6867 536.729 24.4342 536.729 24.1084ZM549.809 24.1084C549.809 23.779 549.905 23.5247 550.099 23.3457C550.296 23.1667 550.58 23.0771 550.953 23.0771C551.307 23.0771 551.579 23.1667 551.769 23.3457C551.959 23.5247 552.054 23.779 552.054 24.1084C552.054 24.4307 551.955 24.6831 551.758 24.8657C551.565 25.0448 551.297 25.1343 550.953 25.1343C550.598 25.1343 550.319 25.0448 550.115 24.8657C549.911 24.6867 549.809 24.4342 549.809 24.1084ZM562.888 24.1084C562.888 23.779 562.985 23.5247 563.179 23.3457C563.375 23.1667 563.66 23.0771 564.033 23.0771C564.387 23.0771 564.659 23.1667 564.849 23.3457C565.039 23.5247 565.134 23.779 565.134 24.1084C565.134 24.4307 565.035 24.6831 564.838 24.8657C564.645 25.0448 564.376 25.1343 564.033 25.1343C563.678 25.1343 563.399 25.0448 563.195 24.8657C562.991 24.6867 562.888 24.4342 562.888 24.1084ZM575.968 24.1084C575.968 23.779 576.065 23.5247 576.258 23.3457C576.455 23.1667 576.74 23.0771 577.112 23.0771C577.467 23.0771 577.739 23.1667 577.929 23.3457C578.118 23.5247 578.213 23.779 578.213 24.1084C578.213 24.4307 578.115 24.6831 577.918 24.8657C577.724 25.0448 577.456 25.1343 577.112 25.1343C576.758 25.1343 576.478 25.0448 576.274 24.8657C576.07 24.6867 575.968 24.4342 575.968 24.1084ZM589.048 24.1084C589.048 23.779 589.145 23.5247 589.338 23.3457C589.535 23.1667 589.819 23.0771 590.192 23.0771C590.546 23.0771 590.819 23.1667 591.008 23.3457C591.198 23.5247 591.293 23.779 591.293 24.1084C591.293 24.4307 591.194 24.6831 590.998 24.8657C590.804 25.0448 590.536 25.1343 590.192 25.1343C589.837 25.1343 589.558 25.0448 589.354 24.8657C589.15 24.6867 589.048 24.4342 589.048 24.1084ZM602.128 24.1084C602.128 23.779 602.224 23.5247 602.418 23.3457C602.614 23.1667 602.899 23.0771 603.272 23.0771C603.626 23.0771 603.898 23.1667 604.088 23.3457C604.278 23.5247 604.373 23.779 604.373 24.1084C604.373 24.4307 604.274 24.6831 604.077 24.8657C603.884 25.0448 603.615 25.1343 603.272 25.1343C602.917 25.1343 602.638 25.0448 602.434 24.8657C602.23 24.6867 602.128 24.4342 602.128 24.1084ZM615.207 24.1084C615.207 23.779 615.304 23.5247 615.497 23.3457C615.694 23.1667 615.979 23.0771 616.351 23.0771C616.706 23.0771 616.978 23.1667 617.168 23.3457C617.357 23.5247 617.452 23.779 617.452 24.1084C617.452 24.4307 617.354 24.6831 617.157 24.8657C616.964 25.0448 616.695 25.1343 616.351 25.1343C615.997 25.1343 615.717 25.0448 615.513 24.8657C615.309 24.6867 615.207 24.4342 615.207 24.1084ZM628.287 24.1084C628.287 23.779 628.384 23.5247 628.577 23.3457C628.774 23.1667 629.059 23.0771 629.431 23.0771C629.785 23.0771 630.058 23.1667 630.247 23.3457C630.437 23.5247 630.532 23.779 630.532 24.1084C630.532 24.4307 630.434 24.6831 630.237 24.8657C630.043 25.0448 629.775 25.1343 629.431 25.1343C629.076 25.1343 628.797 25.0448 628.593 24.8657C628.389 24.6867 628.287 24.4342 628.287 24.1084ZM641.367 24.1084C641.367 23.779 641.463 23.5247 641.657 23.3457C641.854 23.1667 642.138 23.0771 642.511 23.0771C642.865 23.0771 643.137 23.1667 643.327 23.3457C643.517 23.5247 643.612 23.779 643.612 24.1084C643.612 24.4307 643.513 24.6831 643.316 24.8657C643.123 25.0448 642.854 25.1343 642.511 25.1343C642.156 25.1343 641.877 25.0448 641.673 24.8657C641.469 24.6867 641.367 24.4342 641.367 24.1084ZM654.446 24.1084C654.446 23.779 654.543 23.5247 654.736 23.3457C654.933 23.1667 655.218 23.0771 655.59 23.0771C655.945 23.0771 656.217 23.1667 656.407 23.3457C656.597 23.5247 656.691 23.779 656.691 24.1084C656.691 24.4307 656.593 24.6831 656.396 24.8657C656.203 25.0448 655.934 25.1343 655.59 25.1343C655.236 25.1343 654.957 25.0448 654.752 24.8657C654.548 24.6867 654.446 24.4342 654.446 24.1084ZM667.526 24.1084C667.526 23.779 667.623 23.5247 667.816 23.3457C668.013 23.1667 668.298 23.0771 668.67 23.0771C669.024 23.0771 669.297 23.1667 669.486 23.3457C669.676 23.5247 669.771 23.779 669.771 24.1084C669.771 24.4307 669.673 24.6831 669.476 24.8657C669.282 25.0448 669.014 25.1343 668.67 25.1343C668.315 25.1343 668.036 25.0448 667.832 24.8657C667.628 24.6867 667.526 24.4342 667.526 24.1084ZM680.606 24.1084C680.606 23.779 680.702 23.5247 680.896 23.3457C681.093 23.1667 681.377 23.0771 681.75 23.0771C682.104 23.0771 682.376 23.1667 682.566 23.3457C682.756 23.5247 682.851 23.779 682.851 24.1084C682.851 24.4307 682.752 24.6831 682.555 24.8657C682.362 25.0448 682.093 25.1343 681.75 25.1343C681.395 25.1343 681.116 25.0448 680.912 24.8657C680.708 24.6867 680.606 24.4342 680.606 24.1084ZM693.685 24.1084C693.685 23.779 693.782 23.5247 693.975 23.3457C694.172 23.1667 694.457 23.0771 694.829 23.0771C695.184 23.0771 695.456 23.1667 695.646 23.3457C695.836 23.5247 695.93 23.779 695.93 24.1084C695.93 24.4307 695.832 24.6831 695.635 24.8657C695.442 25.0448 695.173 25.1343 694.829 25.1343C694.475 25.1343 694.196 25.0448 693.991 24.8657C693.787 24.6867 693.685 24.4342 693.685 24.1084Z" fill="url(#paint0_linear)"/>
<defs>
<linearGradient id="paint0_linear" x1="0" y1="31.8042" x2="704" y2="31.8042" gradientUnits="userSpaceOnUse">
<stop stop-color="#0F0F13"/>
<stop offset="1" stop-color="#414690"/>
</linearGradient>
</defs>
</svg>
