<svg width="21" height="21" viewBox="0 0 21 21" fill="none" xmlns="http://www.w3.org/2000/svg">
<path fill-rule="evenodd" clip-rule="evenodd" d="M13.1621 15.1242C11.7997 16.0951 10.1326 16.6662 8.33223 16.6662C3.73047 16.6662 0 12.9353 0 8.3331C0 3.73085 3.73047 0 8.33223 0C12.934 0 16.6645 3.73085 16.6645 8.3331C16.6645 10.1337 16.0934 11.8009 15.1226 13.1635L20.5972 18.6386C21.1365 19.178 21.132 20.0411 20.597 20.5762L20.574 20.5991C20.0404 21.1329 19.1716 21.1343 18.6367 20.5993L13.1621 15.1242ZM8.33223 14.7055C11.8512 14.7055 14.7039 11.8525 14.7039 8.3331C14.7039 4.81373 11.8512 1.96073 8.33223 1.96073C4.81324 1.96073 1.96053 4.81373 1.96053 8.3331C1.96053 11.8525 4.81324 14.7055 8.33223 14.7055Z" fill="#B5B5BE"/>
</svg>
